<svg xmlns="http://www.w3.org/2000/svg" xmlns:xlink="http://www.w3.org/1999/xlink" width="500" zoomAndPan="magnify" viewBox="0 0 375 374.999991" height="500" preserveAspectRatio="xMidYMid meet" version="1.0"><defs><g/><clipPath id="id1"><path d="M 72.835938 112.230469 L 196 112.230469 L 196 197.730469 L 72.835938 197.730469 Z M 72.835938 112.230469 " clip-rule="nonzero"/></clipPath><clipPath id="id2"><path d="M 195 112.230469 L 282 112.230469 L 282 147 L 195 147 Z M 195 112.230469 " clip-rule="nonzero"/></clipPath><clipPath id="id3"><path d="M 195 133 L 297.835938 133 L 297.835938 184 L 195 184 Z M 195 133 " clip-rule="nonzero"/></clipPath><clipPath id="id4"><path d="M 195 170 L 282 170 L 282 197.730469 L 195 197.730469 Z M 195 170 " clip-rule="nonzero"/></clipPath></defs><rect x="-37.5" width="450" fill="rgb(100%, 100%, 100%)" y="-37.499999" height="449.999989" fill-opacity="1"/><rect x="-37.5" width="450" fill="rgb(100%, 100%, 100%)" y="-37.499999" height="449.999989" fill-opacity="1"/><rect x="-37.5" width="450" fill="rgb(100%, 100%, 100%)" y="-37.499999" height="449.999989" fill-opacity="1"/><rect x="-37.5" width="450" fill="rgb(100%, 100%, 100%)" y="-37.499999" height="449.999989" fill-opacity="1"/><g clip-path="url(#id1)"><path fill="rgb(2.349854%, 60.389709%, 93.728638%)" d="M 195.464844 112.375 L 167.199219 112.375 C 165.65625 112.375 164.128906 112.535156 162.617188 112.847656 C 161.105469 113.160156 159.644531 113.625 158.230469 114.242188 C 156.816406 114.855469 155.476562 115.609375 154.21875 116.5 C 152.957031 117.390625 151.800781 118.398438 150.75 119.527344 L 131.003906 136.90625 L 105.425781 136.90625 C 104.503906 136.90625 103.578125 136.945312 102.65625 137.027344 C 101.734375 137.109375 100.820312 137.234375 99.90625 137.398438 C 98.996094 137.5625 98.097656 137.765625 97.203125 138.011719 C 96.3125 138.257812 95.429688 138.539062 94.5625 138.863281 C 93.695312 139.1875 92.84375 139.546875 92.011719 139.945312 C 91.175781 140.347656 90.359375 140.78125 89.5625 141.253906 C 88.769531 141.726562 87.996094 142.230469 87.242188 142.773438 C 86.492188 143.3125 85.769531 143.886719 85.066406 144.492188 C 84.367188 145.097656 83.695312 145.734375 83.054688 146.398438 C 82.410156 147.066406 81.800781 147.757812 81.21875 148.480469 C 80.636719 149.199219 80.089844 149.945312 79.574219 150.714844 C 79.058594 151.484375 78.582031 152.273438 78.136719 153.085938 C 77.691406 153.898438 77.285156 154.726562 76.917969 155.574219 C 76.546875 156.425781 76.214844 157.289062 75.921875 158.164062 C 75.628906 159.042969 75.375 159.933594 75.164062 160.832031 C 74.949219 161.734375 74.777344 162.640625 74.644531 163.558594 L 72.835938 176.054688 C 72.835938 176.332031 72.863281 176.609375 72.917969 176.882812 C 72.972656 177.15625 73.054688 177.421875 73.160156 177.679688 C 73.265625 177.933594 73.398438 178.179688 73.550781 178.410156 C 73.707031 178.644531 73.882812 178.859375 74.078125 179.054688 C 74.277344 179.253906 74.492188 179.429688 74.722656 179.582031 C 74.953125 179.738281 75.199219 179.867188 75.457031 179.976562 C 75.714844 180.082031 75.980469 180.164062 76.253906 180.21875 C 76.527344 180.269531 76.804688 180.296875 77.082031 180.296875 L 94.089844 180.296875 C 94.308594 181.503906 94.632812 182.679688 95.054688 183.828125 C 95.480469 184.976562 96 186.078125 96.613281 187.136719 C 97.230469 188.195312 97.933594 189.191406 98.722656 190.125 C 99.511719 191.0625 100.378906 191.921875 101.316406 192.703125 C 102.257812 193.488281 103.257812 194.1875 104.320312 194.796875 C 105.378906 195.40625 106.484375 195.917969 107.636719 196.335938 C 108.789062 196.753906 109.964844 197.070312 111.171875 197.28125 C 112.375 197.492188 113.589844 197.597656 114.816406 197.597656 C 116.039062 197.597656 117.253906 197.492188 118.457031 197.28125 C 119.664062 197.070312 120.84375 196.753906 121.992188 196.335938 C 123.144531 195.917969 124.25 195.40625 125.308594 194.796875 C 126.371094 194.1875 127.371094 193.488281 128.3125 192.703125 C 129.25 191.921875 130.117188 191.0625 130.90625 190.125 C 131.695312 189.191406 132.398438 188.195312 133.015625 187.136719 C 133.628906 186.078125 134.148438 184.976562 134.574219 183.828125 C 134.996094 182.679688 135.320312 181.503906 135.539062 180.296875 L 195.464844 180.296875 Z M 195.464844 112.375 " fill-opacity="1" fill-rule="nonzero"/></g><g clip-path="url(#id2)"><path fill="rgb(25.489807%, 25.099182%, 25.878906%)" d="M 195.464844 118.039062 L 220.917969 118.039062 C 222.265625 118.042969 223.601562 118.179688 224.921875 118.457031 C 226.242188 118.730469 227.519531 119.136719 228.753906 119.675781 C 229.992188 120.210938 231.160156 120.871094 232.261719 121.648438 C 233.363281 122.425781 234.375 123.304688 235.296875 124.289062 L 248.222656 135.679688 C 249.472656 136.78125 250.808594 137.757812 252.238281 138.613281 C 253.664062 139.472656 255.15625 140.191406 256.710938 140.777344 C 258.269531 141.367188 259.867188 141.808594 261.503906 142.105469 C 263.140625 142.402344 264.792969 142.550781 266.457031 142.550781 L 268.511719 142.550781 C 268.726562 143 268.984375 143.417969 269.292969 143.808594 C 269.601562 144.199219 269.949219 144.550781 270.335938 144.863281 C 270.722656 145.175781 271.140625 145.441406 271.585938 145.65625 C 272.035156 145.875 272.5 146.039062 272.984375 146.152344 C 273.46875 146.265625 273.960938 146.324219 274.457031 146.324219 C 274.953125 146.328125 275.445312 146.273438 275.929688 146.164062 C 276.417969 146.054688 276.882812 145.890625 277.332031 145.675781 C 277.78125 145.464844 278.199219 145.199219 278.589844 144.890625 C 278.976562 144.582031 279.328125 144.234375 279.640625 143.84375 C 279.949219 143.457031 280.210938 143.039062 280.429688 142.589844 C 280.644531 142.144531 280.808594 141.675781 280.917969 141.191406 C 281.03125 140.707031 281.085938 140.214844 281.085938 139.71875 C 281.085938 139.222656 281.03125 138.730469 280.917969 138.246094 C 280.808594 137.761719 280.644531 137.292969 280.429688 136.847656 C 280.210938 136.398438 279.949219 135.980469 279.640625 135.59375 C 279.328125 135.203125 278.976562 134.855469 278.589844 134.546875 C 278.199219 134.234375 277.78125 133.972656 277.332031 133.757812 C 276.882812 133.542969 276.417969 133.382812 275.929688 133.273438 C 275.445312 133.164062 274.953125 133.109375 274.457031 133.113281 C 273.960938 133.113281 273.46875 133.171875 272.984375 133.285156 C 272.5 133.394531 272.035156 133.5625 271.585938 133.777344 C 271.140625 133.996094 270.722656 134.261719 270.335938 134.574219 C 269.949219 134.886719 269.601562 135.238281 269.292969 135.628906 C 268.984375 136.019531 268.726562 136.4375 268.511719 136.886719 L 266.457031 136.886719 C 263.789062 136.886719 261.207031 136.417969 258.707031 135.472656 C 256.210938 134.53125 253.964844 133.179688 251.960938 131.414062 L 239.324219 120.324219 C 238.140625 119.070312 236.84375 117.949219 235.429688 116.964844 C 234.019531 115.976562 232.519531 115.140625 230.9375 114.457031 C 229.355469 113.773438 227.722656 113.257812 226.035156 112.90625 C 224.347656 112.558594 222.640625 112.378906 220.917969 112.375 L 195.464844 112.375 Z M 195.464844 118.039062 " fill-opacity="1" fill-rule="nonzero"/></g><g clip-path="url(#id3)"><path fill="rgb(25.489807%, 25.099182%, 25.878906%)" d="M 290.832031 151.332031 C 290.234375 151.332031 289.644531 151.410156 289.070312 151.570312 C 288.492188 151.730469 287.945312 151.964844 287.433594 152.273438 C 286.921875 152.582031 286.457031 152.953125 286.046875 153.386719 C 285.632812 153.820312 285.289062 154.300781 285.007812 154.832031 L 245.386719 154.832031 C 245.050781 154.832031 244.71875 154.796875 244.386719 154.730469 C 244.058594 154.667969 243.742188 154.570312 243.429688 154.441406 C 243.121094 154.3125 242.828125 154.15625 242.546875 153.96875 C 242.269531 153.78125 242.011719 153.570312 241.773438 153.332031 C 241.535156 153.097656 241.324219 152.839844 241.136719 152.558594 C 240.949219 152.28125 240.792969 151.988281 240.664062 151.675781 C 240.535156 151.367188 240.4375 151.046875 240.371094 150.71875 C 240.308594 150.390625 240.273438 150.058594 240.273438 149.722656 C 240.273438 149.179688 240.246094 148.636719 240.191406 148.097656 C 240.136719 147.558594 240.058594 147.019531 239.953125 146.488281 C 239.84375 145.957031 239.714844 145.429688 239.554688 144.910156 C 239.398438 144.390625 239.214844 143.878906 239.007812 143.378906 C 238.796875 142.875 238.566406 142.386719 238.308594 141.90625 C 238.054688 141.429688 237.773438 140.964844 237.472656 140.511719 C 237.171875 140.058594 236.847656 139.625 236.503906 139.203125 C 236.160156 138.785156 235.792969 138.382812 235.410156 138 C 235.027344 137.613281 234.625 137.25 234.203125 136.90625 C 233.785156 136.5625 233.347656 136.238281 232.898438 135.9375 C 232.445312 135.632812 231.980469 135.355469 231.503906 135.097656 C 231.023438 134.84375 230.535156 134.609375 230.03125 134.402344 C 229.53125 134.195312 229.019531 134.011719 228.5 133.855469 C 227.980469 133.695312 227.453125 133.5625 226.921875 133.457031 C 226.390625 133.351562 225.851562 133.269531 225.3125 133.21875 C 224.773438 133.164062 224.230469 133.136719 223.6875 133.136719 L 195.464844 133.136719 L 195.464844 138.792969 L 223.6875 138.792969 C 224.40625 138.792969 225.113281 138.863281 225.820312 139.003906 C 226.523438 139.144531 227.203125 139.355469 227.867188 139.628906 C 228.53125 139.902344 229.160156 140.242188 229.753906 140.640625 C 230.351562 141.039062 230.902344 141.492188 231.410156 142 C 231.917969 142.503906 232.371094 143.058594 232.769531 143.652344 C 233.167969 144.25 233.503906 144.878906 233.777344 145.542969 C 234.050781 146.203125 234.261719 146.886719 234.398438 147.589844 C 234.539062 148.292969 234.609375 149.003906 234.613281 149.722656 L 234.613281 170.570312 C 234.164062 170.785156 233.742188 171.046875 233.351562 171.351562 C 232.960938 171.660156 232.609375 172.007812 232.296875 172.394531 C 231.984375 172.785156 231.722656 173.199219 231.503906 173.648438 C 231.285156 174.09375 231.121094 174.5625 231.007812 175.046875 C 230.894531 175.53125 230.839844 176.019531 230.835938 176.519531 C 230.835938 177.015625 230.886719 177.507812 230.996094 177.992188 C 231.105469 178.476562 231.269531 178.945312 231.484375 179.390625 C 231.699219 179.839844 231.960938 180.261719 232.269531 180.648438 C 232.578125 181.039062 232.925781 181.390625 233.316406 181.699219 C 233.703125 182.011719 234.121094 182.273438 234.570312 182.488281 C 235.019531 182.707031 235.484375 182.871094 235.96875 182.980469 C 236.453125 183.089844 236.945312 183.148438 237.441406 183.148438 C 237.941406 183.148438 238.429688 183.089844 238.914062 182.980469 C 239.398438 182.871094 239.867188 182.707031 240.3125 182.488281 C 240.761719 182.273438 241.179688 182.011719 241.570312 181.699219 C 241.957031 181.390625 242.304688 181.039062 242.613281 180.648438 C 242.925781 180.261719 243.1875 179.839844 243.402344 179.390625 C 243.617188 178.945312 243.777344 178.476562 243.886719 177.992188 C 243.996094 177.507812 244.050781 177.015625 244.046875 176.519531 C 244.046875 176.019531 243.988281 175.53125 243.875 175.046875 C 243.765625 174.5625 243.597656 174.09375 243.382812 173.648438 C 243.164062 173.199219 242.898438 172.785156 242.585938 172.394531 C 242.273438 172.007812 241.921875 171.660156 241.53125 171.351562 C 241.140625 171.046875 240.722656 170.785156 240.273438 170.570312 L 240.273438 159.195312 C 241.867188 160.058594 243.570312 160.488281 245.386719 160.484375 L 284.742188 160.484375 C 284.894531 160.851562 285.078125 161.199219 285.296875 161.53125 C 285.511719 161.867188 285.757812 162.175781 286.027344 162.464844 C 286.300781 162.753906 286.597656 163.015625 286.917969 163.253906 C 287.234375 163.488281 287.574219 163.695312 287.929688 163.867188 C 288.289062 164.042969 288.65625 164.183594 289.039062 164.292969 C 289.421875 164.398438 289.808594 164.472656 290.207031 164.511719 C 290.601562 164.546875 290.996094 164.550781 291.390625 164.515625 C 291.789062 164.484375 292.175781 164.414062 292.5625 164.3125 C 292.945312 164.207031 293.316406 164.070312 293.671875 163.898438 C 294.03125 163.730469 294.371094 163.527344 294.695312 163.296875 C 295.015625 163.0625 295.316406 162.804688 295.589844 162.519531 C 295.867188 162.230469 296.113281 161.925781 296.335938 161.59375 C 296.554688 161.261719 296.742188 160.914062 296.902344 160.550781 C 297.058594 160.1875 297.179688 159.808594 297.269531 159.421875 C 297.359375 159.035156 297.414062 158.644531 297.433594 158.246094 C 297.453125 157.851562 297.433594 157.457031 297.382812 157.0625 C 297.332031 156.667969 297.242188 156.28125 297.121094 155.90625 C 297 155.527344 296.84375 155.164062 296.65625 154.8125 C 296.46875 154.460938 296.25 154.132812 296.003906 153.820312 C 295.757812 153.511719 295.484375 153.222656 295.183594 152.964844 C 294.886719 152.703125 294.566406 152.46875 294.226562 152.265625 C 293.886719 152.0625 293.527344 151.890625 293.15625 151.75 C 292.785156 151.609375 292.402344 151.503906 292.011719 151.433594 C 291.621094 151.363281 291.230469 151.328125 290.832031 151.328125 Z M 290.832031 151.332031 " fill-opacity="1" fill-rule="nonzero"/></g><path fill="rgb(25.489807%, 25.099182%, 25.878906%)" d="M 216.378906 163.320312 C 216.769531 163.320312 217.160156 163.285156 217.546875 163.21875 C 217.933594 163.148438 218.3125 163.046875 218.679688 162.910156 C 219.046875 162.773438 219.398438 162.605469 219.738281 162.40625 C 220.078125 162.207031 220.394531 161.976562 220.691406 161.722656 C 220.988281 161.464844 221.261719 161.183594 221.511719 160.878906 C 221.757812 160.574219 221.976562 160.25 222.164062 159.90625 C 222.355469 159.5625 222.511719 159.203125 222.640625 158.832031 C 222.765625 158.460938 222.855469 158.078125 222.914062 157.691406 C 222.972656 157.304688 222.996094 156.914062 222.984375 156.519531 C 222.972656 156.128906 222.925781 155.738281 222.847656 155.355469 C 222.765625 154.96875 222.652344 154.597656 222.503906 154.230469 C 222.355469 153.867188 222.175781 153.519531 221.96875 153.1875 C 221.757812 152.855469 221.519531 152.546875 221.253906 152.253906 C 220.988281 151.964844 220.703125 151.703125 220.390625 151.464844 C 220.078125 151.226562 219.746094 151.015625 219.398438 150.835938 C 219.046875 150.65625 218.683594 150.511719 218.308594 150.394531 C 217.933594 150.28125 217.550781 150.203125 217.160156 150.15625 C 216.769531 150.109375 216.378906 150.097656 215.988281 150.121094 C 215.597656 150.144531 215.210938 150.203125 214.828125 150.292969 C 214.445312 150.386719 214.074219 150.511719 213.714844 150.671875 C 213.355469 150.828125 213.015625 151.019531 212.6875 151.238281 C 212.363281 151.457031 212.058594 151.703125 211.777344 151.976562 C 211.496094 152.25 211.242188 152.546875 211.011719 152.867188 C 210.785156 153.1875 210.585938 153.523438 210.417969 153.878906 L 195.464844 153.878906 L 195.464844 159.535156 L 210.417969 159.535156 C 210.683594 160.101562 211.023438 160.617188 211.4375 161.085938 C 211.847656 161.554688 212.320312 161.957031 212.847656 162.292969 C 213.375 162.628906 213.941406 162.882812 214.539062 163.058594 C 215.140625 163.234375 215.753906 163.320312 216.378906 163.320312 Z M 216.378906 163.320312 " fill-opacity="1" fill-rule="nonzero"/><g clip-path="url(#id4)"><path fill="rgb(25.489807%, 25.099182%, 25.878906%)" d="M 274.457031 170.871094 C 273.832031 170.871094 273.222656 170.957031 272.621094 171.132812 C 272.023438 171.304688 271.460938 171.558594 270.933594 171.894531 C 270.40625 172.226562 269.933594 172.628906 269.519531 173.09375 C 269.105469 173.5625 268.765625 174.078125 268.5 174.640625 L 262.378906 174.640625 C 261.238281 174.648438 260.121094 174.820312 259.03125 175.167969 C 257.945312 175.511719 256.929688 176.007812 255.992188 176.660156 C 255.054688 177.3125 254.234375 178.085938 253.53125 178.988281 C 252.828125 179.886719 252.273438 180.871094 251.871094 181.9375 C 251.597656 182.667969 251.269531 183.371094 250.886719 184.050781 C 250.507812 184.730469 250.078125 185.375 249.597656 185.992188 C 249.121094 186.605469 248.597656 187.179688 248.03125 187.714844 C 247.464844 188.25 246.863281 188.738281 246.222656 189.183594 C 245.582031 189.625 244.914062 190.019531 244.214844 190.359375 C 243.515625 190.703125 242.792969 190.988281 242.050781 191.222656 C 241.304688 191.453125 240.550781 191.628906 239.78125 191.75 C 239.011719 191.867188 238.234375 191.925781 237.457031 191.925781 C 236.679688 191.925781 235.90625 191.871094 235.132812 191.753906 C 234.363281 191.636719 233.609375 191.460938 232.863281 191.230469 C 232.121094 191 231.398438 190.714844 230.699219 190.371094 C 230 190.03125 229.328125 189.640625 228.6875 189.199219 C 228.046875 188.753906 227.441406 188.265625 226.875 187.734375 C 226.308594 187.199219 225.785156 186.625 225.304688 186.011719 C 224.824219 185.398438 224.394531 184.753906 224.011719 184.074219 C 223.628906 183.394531 223.300781 182.691406 223.027344 181.964844 C 222.621094 180.902344 222.070312 179.921875 221.367188 179.027344 C 220.667969 178.132812 219.851562 177.359375 218.917969 176.710938 C 217.984375 176.0625 216.976562 175.566406 215.890625 175.222656 C 214.808594 174.878906 213.699219 174.703125 212.5625 174.691406 L 195.464844 174.640625 L 195.464844 180.304688 L 212.546875 180.351562 C 213.109375 180.351562 213.664062 180.4375 214.203125 180.605469 C 214.742188 180.777344 215.242188 181.023438 215.707031 181.347656 C 216.171875 181.667969 216.574219 182.054688 216.921875 182.503906 C 217.265625 182.949219 217.539062 183.4375 217.734375 183.96875 C 218.109375 184.964844 218.5625 185.925781 219.082031 186.851562 C 219.605469 187.78125 220.195312 188.664062 220.851562 189.5 C 221.507812 190.339844 222.222656 191.121094 223 191.851562 C 223.773438 192.582031 224.601562 193.25 225.476562 193.851562 C 226.351562 194.457031 227.269531 194.992188 228.226562 195.457031 C 229.183594 195.925781 230.167969 196.316406 231.1875 196.632812 C 232.203125 196.945312 233.238281 197.183594 234.289062 197.34375 C 235.339844 197.503906 236.398438 197.582031 237.464844 197.582031 C 238.527344 197.582031 239.585938 197.5 240.640625 197.335938 C 241.691406 197.175781 242.726562 196.9375 243.742188 196.617188 C 244.757812 196.300781 245.742188 195.90625 246.699219 195.441406 C 247.65625 194.972656 248.570312 194.4375 249.445312 193.828125 C 250.320312 193.222656 251.144531 192.554688 251.917969 191.824219 C 252.691406 191.09375 253.40625 190.308594 254.058594 189.46875 C 254.714844 188.628906 255.304688 187.746094 255.824219 186.816406 C 256.34375 185.886719 256.792969 184.925781 257.167969 183.929688 C 257.367188 183.398438 257.640625 182.910156 257.988281 182.460938 C 258.335938 182.011719 258.742188 181.625 259.207031 181.300781 C 259.671875 180.976562 260.175781 180.726562 260.714844 180.554688 C 261.257812 180.382812 261.8125 180.292969 262.378906 180.289062 L 268.5 180.289062 C 268.667969 180.644531 268.867188 180.980469 269.09375 181.300781 C 269.324219 181.617188 269.578125 181.914062 269.859375 182.1875 C 270.144531 182.460938 270.445312 182.707031 270.773438 182.925781 C 271.097656 183.144531 271.4375 183.332031 271.796875 183.492188 C 272.15625 183.648438 272.527344 183.773438 272.910156 183.867188 C 273.289062 183.957031 273.675781 184.015625 274.070312 184.039062 C 274.460938 184.0625 274.851562 184.050781 275.242188 184.003906 C 275.628906 183.957031 276.011719 183.875 276.386719 183.761719 C 276.761719 183.648438 277.125 183.5 277.472656 183.320312 C 277.824219 183.140625 278.152344 182.933594 278.464844 182.695312 C 278.777344 182.457031 279.066406 182.191406 279.328125 181.902344 C 279.59375 181.613281 279.832031 181.304688 280.039062 180.972656 C 280.25 180.640625 280.429688 180.292969 280.574219 179.929688 C 280.722656 179.5625 280.835938 179.191406 280.917969 178.804688 C 281 178.421875 281.042969 178.035156 281.054688 177.640625 C 281.066406 177.25 281.042969 176.859375 280.988281 176.472656 C 280.929688 176.085938 280.835938 175.703125 280.710938 175.332031 C 280.585938 174.960938 280.429688 174.601562 280.238281 174.261719 C 280.050781 173.917969 279.832031 173.59375 279.582031 173.289062 C 279.335938 172.984375 279.0625 172.703125 278.765625 172.445312 C 278.46875 172.191406 278.152344 171.964844 277.8125 171.761719 C 277.476562 171.5625 277.125 171.394531 276.753906 171.257812 C 276.386719 171.121094 276.011719 171.019531 275.625 170.949219 C 275.238281 170.882812 274.847656 170.847656 274.457031 170.847656 Z M 274.457031 170.871094 " fill-opacity="1" fill-rule="nonzero"/></g><g fill="rgb(25.489807%, 25.099182%, 25.878906%)" fill-opacity="1"><g transform="translate(80.567564, 243.898147)"><g><path d="M 13.046875 -30.109375 C 14.648438 -30.109375 16.210938 -29.875 17.734375 -29.40625 C 19.265625 -28.9375 20.398438 -28.476562 21.140625 -28.03125 L 22.21875 -27.3125 L 19.5 -21.9375 C 19.28125 -22.082031 18.976562 -22.265625 18.59375 -22.484375 C 18.21875 -22.710938 17.503906 -23.019531 16.453125 -23.40625 C 15.398438 -23.789062 14.421875 -23.984375 13.515625 -23.984375 C 12.390625 -23.984375 11.519531 -23.742188 10.90625 -23.265625 C 10.300781 -22.785156 10 -22.140625 10 -21.328125 C 10 -20.921875 10.140625 -20.539062 10.421875 -20.1875 C 10.710938 -19.84375 11.203125 -19.472656 11.890625 -19.078125 C 12.585938 -18.691406 13.195312 -18.378906 13.71875 -18.140625 C 14.25 -17.898438 15.066406 -17.539062 16.171875 -17.0625 C 18.078125 -16.25 19.703125 -15.144531 21.046875 -13.75 C 22.398438 -12.351562 23.078125 -10.769531 23.078125 -9 C 23.078125 -7.300781 22.769531 -5.816406 22.15625 -4.546875 C 21.550781 -3.285156 20.71875 -2.296875 19.65625 -1.578125 C 18.59375 -0.859375 17.414062 -0.328125 16.125 0.015625 C 14.832031 0.359375 13.4375 0.53125 11.9375 0.53125 C 10.644531 0.53125 9.375 0.398438 8.125 0.140625 C 6.882812 -0.117188 5.847656 -0.445312 5.015625 -0.84375 C 4.179688 -1.238281 3.425781 -1.625 2.75 -2 C 2.082031 -2.382812 1.597656 -2.707031 1.296875 -2.96875 L 0.828125 -3.375 L 4.1875 -9.03125 C 4.476562 -8.789062 4.875 -8.484375 5.375 -8.109375 C 5.875 -7.742188 6.765625 -7.25 8.046875 -6.625 C 9.328125 -6.007812 10.457031 -5.703125 11.4375 -5.703125 C 14.28125 -5.703125 15.703125 -6.671875 15.703125 -8.609375 C 15.703125 -9.015625 15.597656 -9.390625 15.390625 -9.734375 C 15.191406 -10.078125 14.832031 -10.421875 14.3125 -10.765625 C 13.800781 -11.117188 13.347656 -11.394531 12.953125 -11.59375 C 12.554688 -11.800781 11.910156 -12.113281 11.015625 -12.53125 C 10.117188 -12.945312 9.457031 -13.265625 9.03125 -13.484375 C 7.238281 -14.359375 5.851562 -15.457031 4.875 -16.78125 C 3.894531 -18.113281 3.40625 -19.546875 3.40625 -21.078125 C 3.40625 -23.734375 4.382812 -25.898438 6.34375 -27.578125 C 8.300781 -29.265625 10.535156 -30.109375 13.046875 -30.109375 Z M 13.046875 -30.109375 "/></g></g></g><g fill="rgb(25.489807%, 25.099182%, 25.878906%)" fill-opacity="1"><g transform="translate(104.652197, 243.898147)"><g><path d="M 26.59375 0 L 25.203125 -17.53125 L 25.015625 -17.53125 L 18.96875 -0.171875 L 14.953125 -0.171875 L 8.890625 -17.53125 L 8.703125 -17.53125 L 7.3125 0 L 0.578125 0 L 3.21875 -29.578125 L 10.390625 -29.578125 L 16.953125 -12.515625 L 23.515625 -29.578125 L 30.6875 -29.578125 L 33.328125 0 Z M 26.59375 0 "/></g></g></g><g fill="rgb(25.489807%, 25.099182%, 25.878906%)" fill-opacity="1"><g transform="translate(138.557051, 243.898147)"><g><path d="M 17.171875 -29.578125 L 29.109375 0 L 21.859375 0 L 19.671875 -5.921875 L 8.421875 -5.921875 L 6.234375 0 L -1 0 L 10.9375 -29.578125 Z M 17.390625 -11.828125 L 14.09375 -20.4375 L 14.015625 -20.4375 L 10.71875 -11.828125 Z M 17.390625 -11.828125 "/></g></g></g><g fill="rgb(25.489807%, 25.099182%, 25.878906%)" fill-opacity="1"><g transform="translate(166.65579, 243.898147)"><g><path d="M 2.15625 -29.578125 L 12.71875 -29.578125 C 15.5625 -29.578125 17.878906 -28.816406 19.671875 -27.296875 C 21.460938 -25.773438 22.359375 -23.609375 22.359375 -20.796875 C 22.359375 -18.617188 21.816406 -16.796875 20.734375 -15.328125 C 19.648438 -13.859375 18.175781 -12.820312 16.3125 -12.21875 L 26.484375 0 L 17.921875 0 L 8.890625 -11.6875 L 8.890625 0 L 2.15625 0 Z M 8.890625 -16.453125 L 9.671875 -16.453125 C 10.296875 -16.453125 10.820312 -16.460938 11.25 -16.484375 C 11.6875 -16.515625 12.175781 -16.597656 12.71875 -16.734375 C 13.269531 -16.878906 13.710938 -17.082031 14.046875 -17.34375 C 14.378906 -17.613281 14.664062 -18 14.90625 -18.5 C 15.144531 -19 15.265625 -19.609375 15.265625 -20.328125 C 15.265625 -21.046875 15.144531 -21.65625 14.90625 -22.15625 C 14.664062 -22.65625 14.378906 -23.035156 14.046875 -23.296875 C 13.710938 -23.554688 13.269531 -23.757812 12.71875 -23.90625 C 12.175781 -24.050781 11.6875 -24.132812 11.25 -24.15625 C 10.820312 -24.175781 10.296875 -24.1875 9.671875 -24.1875 L 8.890625 -24.1875 Z M 8.890625 -16.453125 "/></g></g></g><g fill="rgb(25.489807%, 25.099182%, 25.878906%)" fill-opacity="1"><g transform="translate(192.3174, 243.898147)"><g><path d="M 0.28125 -23.65625 L 0.28125 -29.578125 L 21.078125 -29.578125 L 21.078125 -23.65625 L 14.046875 -23.65625 L 14.046875 0 L 7.3125 0 L 7.3125 -23.65625 Z M 0.28125 -23.65625 "/></g></g></g><g fill="rgb(25.489807%, 25.099182%, 25.878906%)" fill-opacity="1"><g transform="translate(213.678182, 243.898147)"><g><path d="M 17.890625 -6.09375 C 18.910156 -6.09375 19.90625 -6.25 20.875 -6.5625 C 21.84375 -6.875 22.554688 -7.171875 23.015625 -7.453125 L 23.6875 -7.921875 L 26.5625 -2.1875 C 26.46875 -2.113281 26.335938 -2.015625 26.171875 -1.890625 C 26.003906 -1.773438 25.613281 -1.554688 25 -1.234375 C 24.394531 -0.910156 23.742188 -0.628906 23.046875 -0.390625 C 22.359375 -0.148438 21.453125 0.0625 20.328125 0.25 C 19.203125 0.4375 18.039062 0.53125 16.84375 0.53125 C 14.09375 0.53125 11.488281 -0.140625 9.03125 -1.484375 C 6.570312 -2.835938 4.585938 -4.695312 3.078125 -7.0625 C 1.578125 -9.425781 0.828125 -11.984375 0.828125 -14.734375 C 0.828125 -16.804688 1.269531 -18.796875 2.15625 -20.703125 C 3.039062 -22.617188 4.21875 -24.257812 5.6875 -25.625 C 7.15625 -26.988281 8.867188 -28.078125 10.828125 -28.890625 C 12.785156 -29.703125 14.789062 -30.109375 16.84375 -30.109375 C 18.757812 -30.109375 20.519531 -29.878906 22.125 -29.421875 C 23.738281 -28.972656 24.882812 -28.519531 25.5625 -28.0625 L 26.5625 -27.390625 L 23.6875 -21.65625 C 23.519531 -21.789062 23.269531 -21.957031 22.9375 -22.15625 C 22.601562 -22.363281 21.929688 -22.632812 20.921875 -22.96875 C 19.921875 -23.3125 18.910156 -23.484375 17.890625 -23.484375 C 16.265625 -23.484375 14.804688 -23.21875 13.515625 -22.6875 C 12.222656 -22.164062 11.195312 -21.472656 10.4375 -20.609375 C 9.6875 -19.742188 9.113281 -18.816406 8.71875 -17.828125 C 8.332031 -16.835938 8.140625 -15.828125 8.140625 -14.796875 C 8.140625 -12.554688 8.976562 -10.546875 10.65625 -8.765625 C 12.34375 -6.984375 14.753906 -6.09375 17.890625 -6.09375 Z M 17.890625 -6.09375 "/></g></g></g><g fill="rgb(25.489807%, 25.099182%, 25.878906%)" fill-opacity="1"><g transform="translate(240.665879, 243.898147)"><g><path d="M 17.171875 -29.578125 L 29.109375 0 L 21.859375 0 L 19.671875 -5.921875 L 8.421875 -5.921875 L 6.234375 0 L -1 0 L 10.9375 -29.578125 Z M 17.390625 -11.828125 L 14.09375 -20.4375 L 14.015625 -20.4375 L 10.71875 -11.828125 Z M 17.390625 -11.828125 "/></g></g></g><g fill="rgb(25.489807%, 25.099182%, 25.878906%)" fill-opacity="1"><g transform="translate(268.764619, 243.898147)"><g><path d="M 2.15625 -29.578125 L 12.71875 -29.578125 C 15.5625 -29.578125 17.878906 -28.816406 19.671875 -27.296875 C 21.460938 -25.773438 22.359375 -23.609375 22.359375 -20.796875 C 22.359375 -18.617188 21.816406 -16.796875 20.734375 -15.328125 C 19.648438 -13.859375 18.175781 -12.820312 16.3125 -12.21875 L 26.484375 0 L 17.921875 0 L 8.890625 -11.6875 L 8.890625 0 L 2.15625 0 Z M 8.890625 -16.453125 L 9.671875 -16.453125 C 10.296875 -16.453125 10.820312 -16.460938 11.25 -16.484375 C 11.6875 -16.515625 12.175781 -16.597656 12.71875 -16.734375 C 13.269531 -16.878906 13.710938 -17.082031 14.046875 -17.34375 C 14.378906 -17.613281 14.664062 -18 14.90625 -18.5 C 15.144531 -19 15.265625 -19.609375 15.265625 -20.328125 C 15.265625 -21.046875 15.144531 -21.65625 14.90625 -22.15625 C 14.664062 -22.65625 14.378906 -23.035156 14.046875 -23.296875 C 13.710938 -23.554688 13.269531 -23.757812 12.71875 -23.90625 C 12.175781 -24.050781 11.6875 -24.132812 11.25 -24.15625 C 10.820312 -24.175781 10.296875 -24.1875 9.671875 -24.1875 L 8.890625 -24.1875 Z M 8.890625 -16.453125 "/></g></g></g><g fill="rgb(25.489807%, 25.099182%, 25.878906%)" fill-opacity="1"><g transform="translate(93.193796, 260.080809)"><g><path d="M 1.28125 0 L 1.28125 -9.03125 L 1.90625 -9.03125 L 1.90625 0 Z M 1.28125 0 "/></g></g><g transform="translate(96.381241, 260.080809)"><g><path d="M 5.8125 0 L 5.8125 -4.359375 C 5.8125 -5.035156 5.664062 -5.523438 5.375 -5.828125 C 5.09375 -6.140625 4.65625 -6.296875 4.0625 -6.296875 C 3.257812 -6.296875 2.671875 -6.09375 2.296875 -5.6875 C 1.921875 -5.28125 1.734375 -4.617188 1.734375 -3.703125 L 1.734375 0 L 1.125 0 L 1.125 -6.71875 L 1.640625 -6.71875 L 1.765625 -5.796875 L 1.796875 -5.796875 C 2.234375 -6.492188 3.007812 -6.84375 4.125 -6.84375 C 5.65625 -6.84375 6.421875 -6.023438 6.421875 -4.390625 L 6.421875 0 Z M 5.8125 0 "/></g></g><g transform="translate(103.84332, 260.080809)"><g><path d="M 5.8125 0 L 5.8125 -4.359375 C 5.8125 -5.035156 5.664062 -5.523438 5.375 -5.828125 C 5.09375 -6.140625 4.65625 -6.296875 4.0625 -6.296875 C 3.257812 -6.296875 2.671875 -6.09375 2.296875 -5.6875 C 1.921875 -5.28125 1.734375 -4.617188 1.734375 -3.703125 L 1.734375 0 L 1.125 0 L 1.125 -6.71875 L 1.640625 -6.71875 L 1.765625 -5.796875 L 1.796875 -5.796875 C 2.234375 -6.492188 3.007812 -6.84375 4.125 -6.84375 C 5.65625 -6.84375 6.421875 -6.023438 6.421875 -4.390625 L 6.421875 0 Z M 5.8125 0 "/></g></g><g transform="translate(111.305399, 260.080809)"><g><path d="M 6.6875 -3.375 C 6.6875 -2.269531 6.421875 -1.410156 5.890625 -0.796875 C 5.359375 -0.179688 4.625 0.125 3.6875 0.125 C 3.09375 0.125 2.570312 -0.015625 2.125 -0.296875 C 1.675781 -0.585938 1.332031 -1 1.09375 -1.53125 C 0.851562 -2.0625 0.734375 -2.675781 0.734375 -3.375 C 0.734375 -4.46875 1 -5.316406 1.53125 -5.921875 C 2.0625 -6.535156 2.789062 -6.84375 3.71875 -6.84375 C 4.644531 -6.84375 5.367188 -6.53125 5.890625 -5.90625 C 6.421875 -5.289062 6.6875 -4.445312 6.6875 -3.375 Z M 1.375 -3.375 C 1.375 -2.445312 1.578125 -1.722656 1.984375 -1.203125 C 2.390625 -0.691406 2.960938 -0.4375 3.703125 -0.4375 C 4.441406 -0.4375 5.015625 -0.691406 5.421875 -1.203125 C 5.828125 -1.722656 6.03125 -2.445312 6.03125 -3.375 C 6.03125 -4.300781 5.828125 -5.019531 5.421875 -5.53125 C 5.015625 -6.039062 4.441406 -6.296875 3.703125 -6.296875 C 2.953125 -6.296875 2.375 -6.039062 1.96875 -5.53125 C 1.570312 -5.019531 1.375 -4.300781 1.375 -3.375 Z M 1.375 -3.375 "/></g></g><g transform="translate(118.71806, 260.080809)"><g><path d="M 2.59375 0 L 0 -6.71875 L 0.625 -6.71875 L 2.359375 -2.15625 C 2.597656 -1.5625 2.773438 -1.050781 2.890625 -0.625 L 2.921875 -0.625 C 3.085938 -1.175781 3.257812 -1.6875 3.4375 -2.15625 L 5.171875 -6.71875 L 5.8125 -6.71875 L 3.21875 0 Z M 2.59375 0 "/></g></g><g transform="translate(124.524645, 260.080809)"><g><path d="M 5.203125 0 L 5.046875 -1.0625 L 5 -1.0625 C 4.664062 -0.625 4.316406 -0.316406 3.953125 -0.140625 C 3.597656 0.0351562 3.175781 0.125 2.6875 0.125 C 2.03125 0.125 1.519531 -0.0390625 1.15625 -0.375 C 0.789062 -0.71875 0.609375 -1.1875 0.609375 -1.78125 C 0.609375 -2.4375 0.878906 -2.945312 1.421875 -3.3125 C 1.972656 -3.675781 2.765625 -3.867188 3.796875 -3.890625 L 5.078125 -3.921875 L 5.078125 -4.375 C 5.078125 -5.007812 4.945312 -5.488281 4.6875 -5.8125 C 4.425781 -6.132812 4.007812 -6.296875 3.4375 -6.296875 C 2.8125 -6.296875 2.164062 -6.125 1.5 -5.78125 L 1.265625 -6.3125 C 2.003906 -6.65625 2.734375 -6.828125 3.453125 -6.828125 C 4.191406 -6.828125 4.742188 -6.632812 5.109375 -6.25 C 5.472656 -5.875 5.65625 -5.28125 5.65625 -4.46875 L 5.65625 0 Z M 2.734375 -0.4375 C 3.453125 -0.4375 4.015625 -0.640625 4.421875 -1.046875 C 4.835938 -1.453125 5.046875 -2.019531 5.046875 -2.75 L 5.046875 -3.421875 L 3.875 -3.375 C 2.925781 -3.320312 2.25 -3.171875 1.84375 -2.921875 C 1.445312 -2.671875 1.25 -2.285156 1.25 -1.765625 C 1.25 -1.335938 1.378906 -1.007812 1.640625 -0.78125 C 1.898438 -0.550781 2.265625 -0.4375 2.734375 -0.4375 Z M 2.734375 -0.4375 "/></g></g><g transform="translate(131.226926, 260.080809)"><g><path d="M 2.890625 -0.421875 C 3.285156 -0.421875 3.625 -0.453125 3.90625 -0.515625 L 3.90625 -0.03125 C 3.613281 0.0703125 3.273438 0.125 2.890625 0.125 C 2.296875 0.125 1.859375 -0.03125 1.578125 -0.34375 C 1.296875 -0.664062 1.15625 -1.164062 1.15625 -1.84375 L 1.15625 -6.1875 L 0.15625 -6.1875 L 0.15625 -6.546875 L 1.15625 -6.828125 L 1.453125 -8.34375 L 1.78125 -8.34375 L 1.78125 -6.71875 L 3.75 -6.71875 L 3.75 -6.1875 L 1.78125 -6.1875 L 1.78125 -1.9375 C 1.78125 -1.414062 1.867188 -1.03125 2.046875 -0.78125 C 2.222656 -0.539062 2.503906 -0.421875 2.890625 -0.421875 Z M 2.890625 -0.421875 "/></g></g><g transform="translate(135.464497, 260.080809)"><g><path d="M 1.734375 0 L 1.125 0 L 1.125 -6.71875 L 1.734375 -6.71875 Z M 1.03125 -8.578125 C 1.03125 -8.972656 1.160156 -9.171875 1.421875 -9.171875 C 1.554688 -9.171875 1.65625 -9.117188 1.71875 -9.015625 C 1.789062 -8.921875 1.828125 -8.773438 1.828125 -8.578125 C 1.828125 -8.398438 1.789062 -8.253906 1.71875 -8.140625 C 1.65625 -8.035156 1.554688 -7.984375 1.421875 -7.984375 C 1.160156 -7.984375 1.03125 -8.179688 1.03125 -8.578125 Z M 1.03125 -8.578125 "/></g></g><g transform="translate(138.324549, 260.080809)"><g><path d="M 2.59375 0 L 0 -6.71875 L 0.625 -6.71875 L 2.359375 -2.15625 C 2.597656 -1.5625 2.773438 -1.050781 2.890625 -0.625 L 2.921875 -0.625 C 3.085938 -1.175781 3.257812 -1.6875 3.4375 -2.15625 L 5.171875 -6.71875 L 5.8125 -6.71875 L 3.21875 0 Z M 2.59375 0 "/></g></g><g transform="translate(144.131134, 260.080809)"><g><path d="M 3.84375 0.125 C 2.863281 0.125 2.097656 -0.175781 1.546875 -0.78125 C 1.003906 -1.382812 0.734375 -2.226562 0.734375 -3.3125 C 0.734375 -4.375 0.992188 -5.226562 1.515625 -5.875 C 2.046875 -6.519531 2.757812 -6.84375 3.65625 -6.84375 C 4.445312 -6.84375 5.070312 -6.566406 5.53125 -6.015625 C 5.988281 -5.460938 6.21875 -4.710938 6.21875 -3.765625 L 6.21875 -3.28125 L 1.375 -3.28125 C 1.382812 -2.351562 1.597656 -1.644531 2.015625 -1.15625 C 2.441406 -0.675781 3.050781 -0.4375 3.84375 -0.4375 C 4.21875 -0.4375 4.550781 -0.460938 4.84375 -0.515625 C 5.132812 -0.566406 5.503906 -0.679688 5.953125 -0.859375 L 5.953125 -0.296875 C 5.566406 -0.140625 5.210938 -0.03125 4.890625 0.03125 C 4.578125 0.09375 4.226562 0.125 3.84375 0.125 Z M 3.65625 -6.296875 C 3.007812 -6.296875 2.488281 -6.082031 2.09375 -5.65625 C 1.707031 -5.238281 1.484375 -4.625 1.421875 -3.8125 L 5.5625 -3.8125 C 5.5625 -4.59375 5.390625 -5.203125 5.046875 -5.640625 C 4.710938 -6.078125 4.25 -6.296875 3.65625 -6.296875 Z M 3.65625 -6.296875 "/></g></g><g transform="translate(151.074326, 260.080809)"><g/></g><g transform="translate(154.360606, 260.080809)"><g><path d="M 5.296875 -1.75 C 5.296875 -1.144531 5.066406 -0.679688 4.609375 -0.359375 C 4.148438 -0.0351562 3.5 0.125 2.65625 0.125 C 1.757812 0.125 1.046875 -0.015625 0.515625 -0.296875 L 0.515625 -0.953125 C 1.191406 -0.609375 1.90625 -0.4375 2.65625 -0.4375 C 3.320312 -0.4375 3.828125 -0.546875 4.171875 -0.765625 C 4.515625 -0.992188 4.6875 -1.289062 4.6875 -1.65625 C 4.6875 -1.988281 4.546875 -2.269531 4.265625 -2.5 C 3.992188 -2.738281 3.546875 -2.96875 2.921875 -3.1875 C 2.253906 -3.425781 1.78125 -3.632812 1.5 -3.8125 C 1.226562 -3.988281 1.023438 -4.1875 0.890625 -4.40625 C 0.753906 -4.625 0.6875 -4.894531 0.6875 -5.21875 C 0.6875 -5.71875 0.894531 -6.113281 1.3125 -6.40625 C 1.738281 -6.695312 2.332031 -6.84375 3.09375 -6.84375 C 3.8125 -6.84375 4.5 -6.707031 5.15625 -6.4375 L 4.921875 -5.890625 C 4.265625 -6.160156 3.65625 -6.296875 3.09375 -6.296875 C 2.539062 -6.296875 2.101562 -6.203125 1.78125 -6.015625 C 1.457031 -5.835938 1.296875 -5.585938 1.296875 -5.265625 C 1.296875 -4.910156 1.421875 -4.628906 1.671875 -4.421875 C 1.921875 -4.210938 2.410156 -3.976562 3.140625 -3.71875 C 3.742188 -3.5 4.179688 -3.300781 4.453125 -3.125 C 4.734375 -2.957031 4.941406 -2.757812 5.078125 -2.53125 C 5.222656 -2.3125 5.296875 -2.050781 5.296875 -1.75 Z M 5.296875 -1.75 "/></g></g><g transform="translate(160.253672, 260.080809)"><g><path d="M 9.515625 0 L 9.515625 -4.40625 C 9.515625 -5.0625 9.382812 -5.539062 9.125 -5.84375 C 8.875 -6.144531 8.484375 -6.296875 7.953125 -6.296875 C 7.265625 -6.296875 6.753906 -6.101562 6.421875 -5.71875 C 6.097656 -5.34375 5.9375 -4.75 5.9375 -3.9375 L 5.9375 0 L 5.3125 0 L 5.3125 -4.59375 C 5.3125 -5.726562 4.789062 -6.296875 3.75 -6.296875 C 3.050781 -6.296875 2.539062 -6.085938 2.21875 -5.671875 C 1.894531 -5.265625 1.734375 -4.609375 1.734375 -3.703125 L 1.734375 0 L 1.125 0 L 1.125 -6.71875 L 1.625 -6.71875 L 1.765625 -5.796875 L 1.796875 -5.796875 C 1.984375 -6.128906 2.25 -6.382812 2.59375 -6.5625 C 2.9375 -6.75 3.3125 -6.84375 3.71875 -6.84375 C 4.78125 -6.84375 5.460938 -6.445312 5.765625 -5.65625 L 5.78125 -5.65625 C 6 -6.039062 6.289062 -6.332031 6.65625 -6.53125 C 7.03125 -6.738281 7.453125 -6.84375 7.921875 -6.84375 C 8.648438 -6.84375 9.195312 -6.644531 9.5625 -6.25 C 9.9375 -5.863281 10.125 -5.242188 10.125 -4.390625 L 10.125 0 Z M 9.515625 0 "/></g></g><g transform="translate(171.422081, 260.080809)"><g><path d="M 5.203125 0 L 5.046875 -1.0625 L 5 -1.0625 C 4.664062 -0.625 4.316406 -0.316406 3.953125 -0.140625 C 3.597656 0.0351562 3.175781 0.125 2.6875 0.125 C 2.03125 0.125 1.519531 -0.0390625 1.15625 -0.375 C 0.789062 -0.71875 0.609375 -1.1875 0.609375 -1.78125 C 0.609375 -2.4375 0.878906 -2.945312 1.421875 -3.3125 C 1.972656 -3.675781 2.765625 -3.867188 3.796875 -3.890625 L 5.078125 -3.921875 L 5.078125 -4.375 C 5.078125 -5.007812 4.945312 -5.488281 4.6875 -5.8125 C 4.425781 -6.132812 4.007812 -6.296875 3.4375 -6.296875 C 2.8125 -6.296875 2.164062 -6.125 1.5 -5.78125 L 1.265625 -6.3125 C 2.003906 -6.65625 2.734375 -6.828125 3.453125 -6.828125 C 4.191406 -6.828125 4.742188 -6.632812 5.109375 -6.25 C 5.472656 -5.875 5.65625 -5.28125 5.65625 -4.46875 L 5.65625 0 Z M 2.734375 -0.4375 C 3.453125 -0.4375 4.015625 -0.640625 4.421875 -1.046875 C 4.835938 -1.453125 5.046875 -2.019531 5.046875 -2.75 L 5.046875 -3.421875 L 3.875 -3.375 C 2.925781 -3.320312 2.25 -3.171875 1.84375 -2.921875 C 1.445312 -2.671875 1.25 -2.285156 1.25 -1.765625 C 1.25 -1.335938 1.378906 -1.007812 1.640625 -0.78125 C 1.898438 -0.550781 2.265625 -0.4375 2.734375 -0.4375 Z M 2.734375 -0.4375 "/></g></g><g transform="translate(178.124362, 260.080809)"><g><path d="M 3.765625 -6.84375 C 4.054688 -6.84375 4.363281 -6.816406 4.6875 -6.765625 L 4.5625 -6.171875 C 4.28125 -6.242188 3.992188 -6.28125 3.703125 -6.28125 C 3.128906 -6.28125 2.65625 -6.035156 2.28125 -5.546875 C 1.914062 -5.054688 1.734375 -4.441406 1.734375 -3.703125 L 1.734375 0 L 1.125 0 L 1.125 -6.71875 L 1.640625 -6.71875 L 1.703125 -5.5 L 1.75 -5.5 C 2.019531 -6 2.3125 -6.347656 2.625 -6.546875 C 2.945312 -6.742188 3.328125 -6.84375 3.765625 -6.84375 Z M 3.765625 -6.84375 "/></g></g><g transform="translate(183.047605, 260.080809)"><g><path d="M 2.890625 -0.421875 C 3.285156 -0.421875 3.625 -0.453125 3.90625 -0.515625 L 3.90625 -0.03125 C 3.613281 0.0703125 3.273438 0.125 2.890625 0.125 C 2.296875 0.125 1.859375 -0.03125 1.578125 -0.34375 C 1.296875 -0.664062 1.15625 -1.164062 1.15625 -1.84375 L 1.15625 -6.1875 L 0.15625 -6.1875 L 0.15625 -6.546875 L 1.15625 -6.828125 L 1.453125 -8.34375 L 1.78125 -8.34375 L 1.78125 -6.71875 L 3.75 -6.71875 L 3.75 -6.1875 L 1.78125 -6.1875 L 1.78125 -1.9375 C 1.78125 -1.414062 1.867188 -1.03125 2.046875 -0.78125 C 2.222656 -0.539062 2.503906 -0.421875 2.890625 -0.421875 Z M 2.890625 -0.421875 "/></g></g><g transform="translate(187.285176, 260.080809)"><g/></g><g transform="translate(190.571456, 260.080809)"><g><path d="M 2.59375 0 L 0 -6.71875 L 0.625 -6.71875 L 2.359375 -2.15625 C 2.597656 -1.5625 2.773438 -1.050781 2.890625 -0.625 L 2.921875 -0.625 C 3.085938 -1.175781 3.257812 -1.6875 3.4375 -2.15625 L 5.171875 -6.71875 L 5.8125 -6.71875 L 3.21875 0 Z M 2.59375 0 "/></g></g><g transform="translate(196.378041, 260.080809)"><g><path d="M 3.84375 0.125 C 2.863281 0.125 2.097656 -0.175781 1.546875 -0.78125 C 1.003906 -1.382812 0.734375 -2.226562 0.734375 -3.3125 C 0.734375 -4.375 0.992188 -5.226562 1.515625 -5.875 C 2.046875 -6.519531 2.757812 -6.84375 3.65625 -6.84375 C 4.445312 -6.84375 5.070312 -6.566406 5.53125 -6.015625 C 5.988281 -5.460938 6.21875 -4.710938 6.21875 -3.765625 L 6.21875 -3.28125 L 1.375 -3.28125 C 1.382812 -2.351562 1.597656 -1.644531 2.015625 -1.15625 C 2.441406 -0.675781 3.050781 -0.4375 3.84375 -0.4375 C 4.21875 -0.4375 4.550781 -0.460938 4.84375 -0.515625 C 5.132812 -0.566406 5.503906 -0.679688 5.953125 -0.859375 L 5.953125 -0.296875 C 5.566406 -0.140625 5.210938 -0.03125 4.890625 0.03125 C 4.578125 0.09375 4.226562 0.125 3.84375 0.125 Z M 3.65625 -6.296875 C 3.007812 -6.296875 2.488281 -6.082031 2.09375 -5.65625 C 1.707031 -5.238281 1.484375 -4.625 1.421875 -3.8125 L 5.5625 -3.8125 C 5.5625 -4.59375 5.390625 -5.203125 5.046875 -5.640625 C 4.710938 -6.078125 4.25 -6.296875 3.65625 -6.296875 Z M 3.65625 -6.296875 "/></g></g><g transform="translate(203.321234, 260.080809)"><g><path d="M 5.8125 0 L 5.8125 -4.359375 C 5.8125 -5.035156 5.664062 -5.523438 5.375 -5.828125 C 5.09375 -6.140625 4.65625 -6.296875 4.0625 -6.296875 C 3.257812 -6.296875 2.671875 -6.09375 2.296875 -5.6875 C 1.921875 -5.28125 1.734375 -4.617188 1.734375 -3.703125 L 1.734375 0 L 1.125 0 L 1.125 -9.609375 L 1.734375 -9.609375 L 1.734375 -6.5625 L 1.703125 -5.703125 L 1.75 -5.703125 C 2 -6.097656 2.316406 -6.382812 2.703125 -6.5625 C 3.085938 -6.75 3.5625 -6.84375 4.125 -6.84375 C 5.65625 -6.84375 6.421875 -6.023438 6.421875 -4.390625 L 6.421875 0 Z M 5.8125 0 "/></g></g><g transform="translate(210.783312, 260.080809)"><g><path d="M 1.734375 0 L 1.125 0 L 1.125 -6.71875 L 1.734375 -6.71875 Z M 1.03125 -8.578125 C 1.03125 -8.972656 1.160156 -9.171875 1.421875 -9.171875 C 1.554688 -9.171875 1.65625 -9.117188 1.71875 -9.015625 C 1.789062 -8.921875 1.828125 -8.773438 1.828125 -8.578125 C 1.828125 -8.398438 1.789062 -8.253906 1.71875 -8.140625 C 1.65625 -8.035156 1.554688 -7.984375 1.421875 -7.984375 C 1.160156 -7.984375 1.03125 -8.179688 1.03125 -8.578125 Z M 1.03125 -8.578125 "/></g></g><g transform="translate(213.643364, 260.080809)"><g><path d="M 3.8125 0.125 C 2.84375 0.125 2.085938 -0.175781 1.546875 -0.78125 C 1.003906 -1.382812 0.734375 -2.226562 0.734375 -3.3125 C 0.734375 -4.425781 1.015625 -5.289062 1.578125 -5.90625 C 2.140625 -6.53125 2.914062 -6.84375 3.90625 -6.84375 C 4.476562 -6.84375 5.03125 -6.742188 5.5625 -6.546875 L 5.40625 -6 C 4.820312 -6.195312 4.316406 -6.296875 3.890625 -6.296875 C 3.066406 -6.296875 2.441406 -6.039062 2.015625 -5.53125 C 1.585938 -5.019531 1.375 -4.285156 1.375 -3.328125 C 1.375 -2.421875 1.585938 -1.710938 2.015625 -1.203125 C 2.441406 -0.691406 3.035156 -0.4375 3.796875 -0.4375 C 4.398438 -0.4375 4.96875 -0.546875 5.5 -0.765625 L 5.5 -0.1875 C 5.0625 0.0195312 4.5 0.125 3.8125 0.125 Z M 3.8125 0.125 "/></g></g><g transform="translate(219.653797, 260.080809)"><g><path d="M 1.734375 0 L 1.125 0 L 1.125 -9.609375 L 1.734375 -9.609375 Z M 1.734375 0 "/></g></g><g transform="translate(222.513849, 260.080809)"><g><path d="M 3.84375 0.125 C 2.863281 0.125 2.097656 -0.175781 1.546875 -0.78125 C 1.003906 -1.382812 0.734375 -2.226562 0.734375 -3.3125 C 0.734375 -4.375 0.992188 -5.226562 1.515625 -5.875 C 2.046875 -6.519531 2.757812 -6.84375 3.65625 -6.84375 C 4.445312 -6.84375 5.070312 -6.566406 5.53125 -6.015625 C 5.988281 -5.460938 6.21875 -4.710938 6.21875 -3.765625 L 6.21875 -3.28125 L 1.375 -3.28125 C 1.382812 -2.351562 1.597656 -1.644531 2.015625 -1.15625 C 2.441406 -0.675781 3.050781 -0.4375 3.84375 -0.4375 C 4.21875 -0.4375 4.550781 -0.460938 4.84375 -0.515625 C 5.132812 -0.566406 5.503906 -0.679688 5.953125 -0.859375 L 5.953125 -0.296875 C 5.566406 -0.140625 5.210938 -0.03125 4.890625 0.03125 C 4.578125 0.09375 4.226562 0.125 3.84375 0.125 Z M 3.65625 -6.296875 C 3.007812 -6.296875 2.488281 -6.082031 2.09375 -5.65625 C 1.707031 -5.238281 1.484375 -4.625 1.421875 -3.8125 L 5.5625 -3.8125 C 5.5625 -4.59375 5.390625 -5.203125 5.046875 -5.640625 C 4.710938 -6.078125 4.25 -6.296875 3.65625 -6.296875 Z M 3.65625 -6.296875 "/></g></g><g transform="translate(229.457042, 260.080809)"><g/></g><g transform="translate(232.743321, 260.080809)"><g><path d="M 5.296875 -1.75 C 5.296875 -1.144531 5.066406 -0.679688 4.609375 -0.359375 C 4.148438 -0.0351562 3.5 0.125 2.65625 0.125 C 1.757812 0.125 1.046875 -0.015625 0.515625 -0.296875 L 0.515625 -0.953125 C 1.191406 -0.609375 1.90625 -0.4375 2.65625 -0.4375 C 3.320312 -0.4375 3.828125 -0.546875 4.171875 -0.765625 C 4.515625 -0.992188 4.6875 -1.289062 4.6875 -1.65625 C 4.6875 -1.988281 4.546875 -2.269531 4.265625 -2.5 C 3.992188 -2.738281 3.546875 -2.96875 2.921875 -3.1875 C 2.253906 -3.425781 1.78125 -3.632812 1.5 -3.8125 C 1.226562 -3.988281 1.023438 -4.1875 0.890625 -4.40625 C 0.753906 -4.625 0.6875 -4.894531 0.6875 -5.21875 C 0.6875 -5.71875 0.894531 -6.113281 1.3125 -6.40625 C 1.738281 -6.695312 2.332031 -6.84375 3.09375 -6.84375 C 3.8125 -6.84375 4.5 -6.707031 5.15625 -6.4375 L 4.921875 -5.890625 C 4.265625 -6.160156 3.65625 -6.296875 3.09375 -6.296875 C 2.539062 -6.296875 2.101562 -6.203125 1.78125 -6.015625 C 1.457031 -5.835938 1.296875 -5.585938 1.296875 -5.265625 C 1.296875 -4.910156 1.421875 -4.628906 1.671875 -4.421875 C 1.921875 -4.210938 2.410156 -3.976562 3.140625 -3.71875 C 3.742188 -3.5 4.179688 -3.300781 4.453125 -3.125 C 4.734375 -2.957031 4.941406 -2.757812 5.078125 -2.53125 C 5.222656 -2.3125 5.296875 -2.050781 5.296875 -1.75 Z M 5.296875 -1.75 "/></g></g><g transform="translate(238.636387, 260.080809)"><g><path d="M 6.6875 -3.375 C 6.6875 -2.269531 6.421875 -1.410156 5.890625 -0.796875 C 5.359375 -0.179688 4.625 0.125 3.6875 0.125 C 3.09375 0.125 2.570312 -0.015625 2.125 -0.296875 C 1.675781 -0.585938 1.332031 -1 1.09375 -1.53125 C 0.851562 -2.0625 0.734375 -2.675781 0.734375 -3.375 C 0.734375 -4.46875 1 -5.316406 1.53125 -5.921875 C 2.0625 -6.535156 2.789062 -6.84375 3.71875 -6.84375 C 4.644531 -6.84375 5.367188 -6.53125 5.890625 -5.90625 C 6.421875 -5.289062 6.6875 -4.445312 6.6875 -3.375 Z M 1.375 -3.375 C 1.375 -2.445312 1.578125 -1.722656 1.984375 -1.203125 C 2.390625 -0.691406 2.960938 -0.4375 3.703125 -0.4375 C 4.441406 -0.4375 5.015625 -0.691406 5.421875 -1.203125 C 5.828125 -1.722656 6.03125 -2.445312 6.03125 -3.375 C 6.03125 -4.300781 5.828125 -5.019531 5.421875 -5.53125 C 5.015625 -6.039062 4.441406 -6.296875 3.703125 -6.296875 C 2.953125 -6.296875 2.375 -6.039062 1.96875 -5.53125 C 1.570312 -5.019531 1.375 -4.300781 1.375 -3.375 Z M 1.375 -3.375 "/></g></g><g transform="translate(246.049048, 260.080809)"><g><path d="M 3.625 -6.1875 L 2.046875 -6.1875 L 2.046875 0 L 1.421875 0 L 1.421875 -6.1875 L 0.171875 -6.1875 L 0.171875 -6.546875 L 1.421875 -6.765625 L 1.421875 -7.296875 C 1.421875 -8.117188 1.570312 -8.722656 1.875 -9.109375 C 2.1875 -9.492188 2.6875 -9.6875 3.375 -9.6875 C 3.738281 -9.6875 4.109375 -9.628906 4.484375 -9.515625 L 4.34375 -8.984375 C 4.007812 -9.085938 3.679688 -9.140625 3.359375 -9.140625 C 2.878906 -9.140625 2.539062 -9 2.34375 -8.71875 C 2.144531 -8.4375 2.046875 -7.976562 2.046875 -7.34375 L 2.046875 -6.71875 L 3.625 -6.71875 Z M 3.625 -6.1875 "/></g></g><g transform="translate(249.84186, 260.080809)"><g><path d="M 2.890625 -0.421875 C 3.285156 -0.421875 3.625 -0.453125 3.90625 -0.515625 L 3.90625 -0.03125 C 3.613281 0.0703125 3.273438 0.125 2.890625 0.125 C 2.296875 0.125 1.859375 -0.03125 1.578125 -0.34375 C 1.296875 -0.664062 1.15625 -1.164062 1.15625 -1.84375 L 1.15625 -6.1875 L 0.15625 -6.1875 L 0.15625 -6.546875 L 1.15625 -6.828125 L 1.453125 -8.34375 L 1.78125 -8.34375 L 1.78125 -6.71875 L 3.75 -6.71875 L 3.75 -6.1875 L 1.78125 -6.1875 L 1.78125 -1.9375 C 1.78125 -1.414062 1.867188 -1.03125 2.046875 -0.78125 C 2.222656 -0.539062 2.503906 -0.421875 2.890625 -0.421875 Z M 2.890625 -0.421875 "/></g></g><g transform="translate(254.079431, 260.080809)"><g><path d="M 6.5 0 L 5.03125 -4.5 C 4.925781 -4.800781 4.800781 -5.242188 4.65625 -5.828125 L 4.625 -5.828125 L 4.5 -5.375 L 4.21875 -4.484375 L 2.71875 0 L 2.109375 0 L 0.1875 -6.71875 L 0.84375 -6.71875 L 1.921875 -2.828125 C 2.171875 -1.859375 2.335938 -1.148438 2.421875 -0.703125 L 2.453125 -0.703125 C 2.691406 -1.660156 2.867188 -2.300781 2.984375 -2.625 L 4.375 -6.71875 L 4.921875 -6.71875 L 6.234375 -2.625 C 6.535156 -1.664062 6.71875 -1.023438 6.78125 -0.703125 L 6.828125 -0.703125 C 6.859375 -0.972656 7.019531 -1.691406 7.3125 -2.859375 L 8.34375 -6.71875 L 8.953125 -6.71875 L 7.140625 0 Z M 6.5 0 "/></g></g><g transform="translate(263.227891, 260.080809)"><g><path d="M 5.203125 0 L 5.046875 -1.0625 L 5 -1.0625 C 4.664062 -0.625 4.316406 -0.316406 3.953125 -0.140625 C 3.597656 0.0351562 3.175781 0.125 2.6875 0.125 C 2.03125 0.125 1.519531 -0.0390625 1.15625 -0.375 C 0.789062 -0.71875 0.609375 -1.1875 0.609375 -1.78125 C 0.609375 -2.4375 0.878906 -2.945312 1.421875 -3.3125 C 1.972656 -3.675781 2.765625 -3.867188 3.796875 -3.890625 L 5.078125 -3.921875 L 5.078125 -4.375 C 5.078125 -5.007812 4.945312 -5.488281 4.6875 -5.8125 C 4.425781 -6.132812 4.007812 -6.296875 3.4375 -6.296875 C 2.8125 -6.296875 2.164062 -6.125 1.5 -5.78125 L 1.265625 -6.3125 C 2.003906 -6.65625 2.734375 -6.828125 3.453125 -6.828125 C 4.191406 -6.828125 4.742188 -6.632812 5.109375 -6.25 C 5.472656 -5.875 5.65625 -5.28125 5.65625 -4.46875 L 5.65625 0 Z M 2.734375 -0.4375 C 3.453125 -0.4375 4.015625 -0.640625 4.421875 -1.046875 C 4.835938 -1.453125 5.046875 -2.019531 5.046875 -2.75 L 5.046875 -3.421875 L 3.875 -3.375 C 2.925781 -3.320312 2.25 -3.171875 1.84375 -2.921875 C 1.445312 -2.671875 1.25 -2.285156 1.25 -1.765625 C 1.25 -1.335938 1.378906 -1.007812 1.640625 -0.78125 C 1.898438 -0.550781 2.265625 -0.4375 2.734375 -0.4375 Z M 2.734375 -0.4375 "/></g></g><g transform="translate(269.930172, 260.080809)"><g><path d="M 3.765625 -6.84375 C 4.054688 -6.84375 4.363281 -6.816406 4.6875 -6.765625 L 4.5625 -6.171875 C 4.28125 -6.242188 3.992188 -6.28125 3.703125 -6.28125 C 3.128906 -6.28125 2.65625 -6.035156 2.28125 -5.546875 C 1.914062 -5.054688 1.734375 -4.441406 1.734375 -3.703125 L 1.734375 0 L 1.125 0 L 1.125 -6.71875 L 1.640625 -6.71875 L 1.703125 -5.5 L 1.75 -5.5 C 2.019531 -6 2.3125 -6.347656 2.625 -6.546875 C 2.945312 -6.742188 3.328125 -6.84375 3.765625 -6.84375 Z M 3.765625 -6.84375 "/></g></g><g transform="translate(274.853414, 260.080809)"><g><path d="M 3.84375 0.125 C 2.863281 0.125 2.097656 -0.175781 1.546875 -0.78125 C 1.003906 -1.382812 0.734375 -2.226562 0.734375 -3.3125 C 0.734375 -4.375 0.992188 -5.226562 1.515625 -5.875 C 2.046875 -6.519531 2.757812 -6.84375 3.65625 -6.84375 C 4.445312 -6.84375 5.070312 -6.566406 5.53125 -6.015625 C 5.988281 -5.460938 6.21875 -4.710938 6.21875 -3.765625 L 6.21875 -3.28125 L 1.375 -3.28125 C 1.382812 -2.351562 1.597656 -1.644531 2.015625 -1.15625 C 2.441406 -0.675781 3.050781 -0.4375 3.84375 -0.4375 C 4.21875 -0.4375 4.550781 -0.460938 4.84375 -0.515625 C 5.132812 -0.566406 5.503906 -0.679688 5.953125 -0.859375 L 5.953125 -0.296875 C 5.566406 -0.140625 5.210938 -0.03125 4.890625 0.03125 C 4.578125 0.09375 4.226562 0.125 3.84375 0.125 Z M 3.65625 -6.296875 C 3.007812 -6.296875 2.488281 -6.082031 2.09375 -5.65625 C 1.707031 -5.238281 1.484375 -4.625 1.421875 -3.8125 L 5.5625 -3.8125 C 5.5625 -4.59375 5.390625 -5.203125 5.046875 -5.640625 C 4.710938 -6.078125 4.25 -6.296875 3.65625 -6.296875 Z M 3.65625 -6.296875 "/></g></g></g></svg>